<svg width="41" height="50" viewBox="0 0 41 50" fill="none" xmlns="http://www.w3.org/2000/svg">
<line x1="9.37179" y1="22.5343" x2="1.07975" y2="41.3296" stroke="#F94449" stroke-linecap="round"/>
<path d="M10.2758 39.8457L1.00042 41.5848" stroke="#F94449" stroke-linecap="round"/>
<path d="M14.9132 47.3828L10.2755 39.8466" stroke="#F94449" stroke-linecap="round"/>
<path d="M14.9132 47.3828L26.8293 25.2215" stroke="#F94449" stroke-linecap="round"/>
<path d="M40.4195 42.166L30.5644 23.0355" stroke="#F94449" stroke-linecap="round"/>
<path d="M40.3373 42.6592C40.6097 42.7046 40.8673 42.5206 40.9127 42.2482C40.9581 41.9758 40.7741 41.7182 40.5017 41.6728L40.3373 42.6592ZM40.5017 41.6728L30.0669 39.9337L29.9025 40.9201L40.3373 42.6592L40.5017 41.6728Z" fill="#F94449"/>
<path d="M30.4139 40.6836C30.556 40.4468 30.4792 40.1397 30.2424 39.9976C30.0056 39.8556 29.6985 39.9324 29.5564 40.1691L30.4139 40.6836ZM25.1965 49.3793L30.4139 40.6836L29.5564 40.1691L24.339 48.8648L25.1965 49.3793Z" fill="#F94449"/>
<path d="M19.5505 39.2676L24.7679 49.1227" stroke="#F94449" stroke-linecap="round"/>
<ellipse cx="20.2676" cy="15.7339" rx="12.0581" ry="12.0581" fill="url(#paint0_linear_188_10766)"/>
<path d="M20.2676 29.292C27.7556 29.292 33.8257 23.2218 33.8257 15.7339C33.8257 8.24595 27.7556 2.17578 20.2676 2.17578C12.7797 2.17578 6.70953 8.24595 6.70953 15.7339C6.70953 23.2218 12.7797 29.292 20.2676 29.292Z" stroke="url(#paint1_linear_188_10766)" stroke-opacity="0.85" stroke-width="3"/>
<path d="M20.6185 12.804C21.6638 12.804 22.4618 13.112 23.0125 13.728C23.5631 14.344 23.8385 15.1793 23.8385 16.234C23.8385 17.0273 23.6565 17.7227 23.2925 18.32C22.9378 18.9173 22.4058 19.3793 21.6965 19.706C20.9871 20.0327 20.1285 20.196 19.1205 20.196C18.4391 20.196 17.7578 20.1213 17.0765 19.972C16.3951 19.8133 15.7885 19.622 15.2565 19.398V16.416C16.4698 16.9853 17.5711 17.27 18.5605 17.27C19.0738 17.27 19.4565 17.1673 19.7085 16.962C19.9605 16.7473 20.0865 16.416 20.0865 15.968C20.0865 15.6413 20.0118 15.3847 19.8625 15.198C19.7131 15.0113 19.4751 14.918 19.1485 14.918C18.8965 14.918 18.6911 14.9833 18.5325 15.114C18.3831 15.2353 18.2618 15.4127 18.1685 15.646H15.2285L15.8305 9.108H23.2785V11.824H18.6305L18.5045 13.266C19.0925 12.958 19.7971 12.804 20.6185 12.804Z" fill="url(#paint2_linear_188_10766)"/>
<defs>
<linearGradient id="paint0_linear_188_10766" x1="20.2676" y1="3.67578" x2="20.2676" y2="27.792" gradientUnits="userSpaceOnUse">
<stop stop-color="#ECC440"/>
<stop offset="0.5" stop-color="#FFFFAA" stop-opacity="0.541176"/>
<stop offset="0.75" stop-color="#DDAC17"/>
<stop offset="1" stop-color="#FFFF95"/>
</linearGradient>
<linearGradient id="paint1_linear_188_10766" x1="20.2676" y1="3.67578" x2="20.2676" y2="27.792" gradientUnits="userSpaceOnUse">
<stop stop-color="#FFFF95"/>
<stop offset="0.5" stop-color="#DDAC17"/>
<stop offset="0.75" stop-color="#FFFA8A" stop-opacity="0.541176"/>
<stop offset="1" stop-color="#ECC440"/>
</linearGradient>
<linearGradient id="paint2_linear_188_10766" x1="19.9205" y1="6" x2="19.9205" y2="25" gradientUnits="userSpaceOnUse">
<stop offset="1" stop-color="#ECC440"/>
</linearGradient>
</defs>
</svg>
