<svg width="120" height="40" viewBox="0 0 120 40" fill="none" xmlns="http://www.w3.org/2000/svg">
<rect x="0.5" width="40" height="40" rx="8" fill="url(#paint0_linear_117_61)"/>
<path d="M23.125 15.625C23.8172 15.625 24.4939 15.4197 25.0695 15.0351C25.645 14.6506 26.0936 14.1039 26.3586 13.4644C26.6235 12.8249 26.6928 12.1211 26.5577 11.4422C26.4227 10.7633 26.0893 10.1396 25.5998 9.65013C25.1104 9.16064 24.4867 8.8273 23.8078 8.69225C23.1289 8.5572 22.4251 8.62652 21.7856 8.89142C21.146 9.15633 20.5994 9.60493 20.2148 10.1805C19.8302 10.7561 19.625 11.4328 19.625 12.125C19.625 13.0533 19.9937 13.9435 20.6501 14.5999C21.3065 15.2563 22.1967 15.625 23.125 15.625ZM23.125 10.375C23.4711 10.375 23.8094 10.4776 24.0972 10.6699C24.385 10.8622 24.6093 11.1355 24.7418 11.4553C24.8742 11.7751 24.9089 12.1269 24.8413 12.4664C24.7738 12.8059 24.6072 13.1177 24.3624 13.3624C24.1177 13.6072 23.8058 13.7739 23.4664 13.8414C23.1269 13.9089 22.775 13.8742 22.4553 13.7418C22.1355 13.6093 21.8622 13.385 21.6699 13.0972C21.4776 12.8095 21.375 12.4711 21.375 12.125C21.375 11.6609 21.5593 11.2158 21.8875 10.8876C22.2157 10.5594 22.6608 10.375 23.125 10.375ZM30.487 21.3869C30.4203 21.4175 29.6678 21.7456 28.3356 21.7456C26.8208 21.7456 24.5567 21.3213 21.6976 19.5581C21.2625 20.7935 20.6975 21.9792 20.0122 23.0953C21.2431 23.4743 22.401 24.0589 23.4367 24.8245C25.5225 26.4148 26.625 28.6789 26.625 31.375C26.625 31.6071 26.5328 31.8296 26.3687 31.9937C26.2046 32.1578 25.982 32.25 25.75 32.25C25.5179 32.25 25.2953 32.1578 25.1313 31.9937C24.9672 31.8296 24.875 31.6071 24.875 31.375C24.875 26.8141 21.0808 25.1723 18.9534 24.6102C18.8933 24.6867 18.8309 24.7644 18.7686 24.8398C16.6204 27.443 13.9287 28.797 10.934 28.797C10.5929 28.7986 10.252 28.7829 9.91247 28.75C9.68041 28.7268 9.46707 28.6124 9.31938 28.4318C9.1717 28.2513 9.10177 28.0196 9.12497 27.7875C9.14818 27.5554 9.26262 27.3421 9.44313 27.1944C9.62363 27.0467 9.85541 26.9768 10.0875 27C12.9225 27.2822 15.3889 26.1808 17.4156 23.7188C18.7817 22.0628 19.7125 20.0427 20.1773 18.5781C15.9204 16.1008 13.2014 18.2095 13.1718 18.2325C13.0827 18.3086 12.9792 18.366 12.8674 18.4014C12.7557 18.4367 12.638 18.4492 12.5213 18.4382C12.4046 18.4272 12.2913 18.3928 12.1882 18.3372C12.085 18.2815 11.9941 18.2057 11.9208 18.1142C11.8475 18.0228 11.7934 17.9175 11.7615 17.8047C11.7297 17.6919 11.7209 17.5739 11.7355 17.4576C11.7502 17.3413 11.7881 17.2291 11.8469 17.1278C11.9058 17.0264 11.9844 16.9379 12.0781 16.8675C12.2422 16.7363 16.149 13.6956 21.8683 17.5861C26.8415 20.9669 29.7356 19.8075 29.7629 19.7944C29.8678 19.7449 29.9814 19.7167 30.0972 19.7115C30.213 19.7063 30.3287 19.7241 30.4376 19.764C30.5464 19.8039 30.6463 19.865 30.7313 19.9438C30.8163 20.0226 30.8849 20.1175 30.9329 20.223C30.981 20.3285 31.0076 20.4425 31.0112 20.5584C31.0148 20.6742 30.9953 20.7897 30.9539 20.898C30.9125 21.0062 30.8501 21.1052 30.7701 21.1892C30.6901 21.2731 30.5943 21.3403 30.4881 21.3869H30.487Z" fill="white"/>
<path d="M49.648 8.4H57.796V11.2H52.728V16.66H56.704V19.46H52.728V28H49.648V8.4ZM59.273 8.4H62.353V28H59.273V8.4ZM67.0677 11.2H63.8477V8.4H73.3677V11.2H70.1477V28H67.0677V11.2ZM74.8589 8.4H79.2549L81.2149 22.428H81.2709L83.2309 8.4H87.6269V28H84.7149V13.16H84.6589L82.4189 28H79.8429L77.6029 13.16H77.5469V28H74.8589V8.4ZM89.9253 8.4H98.3253V11.2H93.0053V16.38H97.2333V19.18H93.0053V25.2H98.3253V28H89.9253V8.4ZM100.097 8.4H108.497V11.2H103.177V16.38H107.405V19.18H103.177V25.2H108.497V28H100.097V8.4ZM112.677 11.2H109.457V8.4H118.977V11.2H115.757V28H112.677V11.2Z" fill="url(#paint1_linear_117_61)"/>
<defs>
<linearGradient id="paint0_linear_117_61" x1="20.5" y1="0" x2="20.5" y2="40" gradientUnits="userSpaceOnUse">
<stop stop-color="#00BC7D"/>
<stop offset="1" stop-color="#009966"/>
</linearGradient>
<linearGradient id="paint1_linear_117_61" x1="84" y1="4" x2="84" y2="36" gradientUnits="userSpaceOnUse">
<stop stop-color="#00BC7D"/>
<stop offset="0.7" stop-color="#009966"/>
</linearGradient>
</defs>
</svg>
